<?xml version="1.0" standalone="no"?>
<!DOCTYPE svg PUBLIC "-//W3C//DTD SVG 20010904//EN"
 "http://www.w3.org/TR/2001/REC-SVG-20010904/DTD/svg10.dtd">
<svg version="1.0" xmlns="http://www.w3.org/2000/svg"
 width="512.000000pt" height="512.000000pt" viewBox="0 0 512.000000 512.000000"
 preserveAspectRatio="xMidYMid meet">
<metadata>
Created by potrace 1.11, written by Peter Selinger 2001-2013
</metadata>
<g transform="translate(0.000000,512.000000) scale(0.100000,-0.100000)"
fill="#000000" stroke="none">
<path d="M2307 4891 c-72 -35 -93 -74 -129 -242 -17 -79 -32 -145 -34 -147 -1
-1 -48 4 -105 12 -57 9 -124 18 -149 21 -25 3 -58 7 -75 10 -16 3 -47 7 -67
10 -21 3 -53 7 -70 10 -18 2 -69 9 -113 15 -44 6 -91 13 -105 15 -14 2 -61 9
-105 15 -44 6 -91 12 -105 14 -14 3 -47 7 -75 11 -66 8 -84 11 -260 36 -164
23 -227 26 -266 11 -42 -17 -91 -64 -110 -107 -18 -41 -23 -61 -34 -150 -3
-27 -10 -81 -16 -120 -5 -38 -12 -88 -15 -110 -3 -22 -7 -49 -9 -61 -2 -11 -7
-45 -10 -75 -4 -30 -13 -94 -20 -144 -8 -49 -16 -108 -19 -130 -3 -22 -12 -89
-21 -150 -8 -60 -17 -127 -20 -149 -7 -58 -15 -118 -20 -146 -2 -14 -7 -45
-10 -70 -3 -25 -8 -61 -11 -80 -3 -19 -7 -48 -9 -65 -8 -58 -44 -320 -49 -355
-8 -59 -35 -250 -46 -335 -6 -44 -12 -91 -15 -105 -2 -14 -13 -95 -25 -180
-11 -85 -23 -166 -25 -180 -6 -42 -14 -103 -20 -150 -4 -25 -8 -56 -10 -70 -2
-14 -7 -50 -10 -80 -4 -30 -9 -63 -11 -73 -3 -18 -32 -225 -40 -282 -2 -16 -6
-48 -9 -70 -8 -48 -11 -73 -20 -145 -4 -30 -9 -62 -10 -70 -2 -8 -6 -40 -9
-71 -4 -31 -9 -67 -12 -80 -2 -13 -6 -52 -9 -87 -7 -107 30 -177 111 -213 39
-18 61 -23 144 -33 19 -3 69 -9 110 -15 41 -6 93 -14 115 -16 22 -3 51 -8 65
-10 14 -3 48 -7 75 -10 28 -3 75 -10 105 -15 30 -5 77 -12 103 -15 26 -3 111
-14 187 -25 76 -11 161 -22 187 -25 26 -3 55 -8 63 -10 8 -2 40 -7 70 -10 30
-3 66 -8 80 -10 32 -5 94 -13 145 -20 23 -3 50 -7 61 -9 11 -2 47 -7 79 -11
33 -4 67 -9 75 -10 9 -2 43 -6 75 -10 33 -4 67 -9 75 -10 24 -4 161 -24 210
-30 25 -3 56 -8 70 -10 14 -2 43 -7 65 -10 51 -6 99 -13 148 -20 21 -3 57 -7
80 -10 23 -3 83 -11 132 -19 109 -16 164 -13 213 12 62 32 91 79 108 173 9 46
18 94 20 106 4 19 8 21 27 14 13 -5 39 -12 58 -15 19 -3 223 -46 454 -96 578
-125 604 -130 645 -121 69 15 120 57 147 119 11 27 48 181 67 282 2 14 20 97
39 185 20 88 52 237 72 330 19 94 42 197 50 230 8 33 17 75 20 94 6 32 50 240
80 371 17 76 144 663 151 700 6 27 33 154 40 185 3 11 9 40 14 65 5 25 28 131
50 235 23 105 59 271 80 370 21 99 51 234 65 300 15 66 28 131 31 145 3 14 15
72 28 130 31 136 29 197 -10 252 -47 67 -80 81 -304 128 -25 5 -245 52 -490
105 -435 94 -650 140 -693 149 -12 3 -209 45 -437 94 -561 122 -552 120 -660
142 -115 23 -131 22 -193 -9z"/>
</g>
</svg>
